<svg width="128" height="128" viewBox="0 0 128 128" fill="none" xmlns="http://www.w3.org/2000/svg">
  <defs>
    <linearGradient id="humtosong-gradient" x1="16" y1="16" x2="112" y2="112" gradientUnits="userSpaceOnUse">
      <stop offset="0" stop-color="#5B8CFF"/>
      <stop offset="1" stop-color="#9C6BFF"/>
    </linearGradient>
  </defs>
  <rect x="8" y="8" width="112" height="112" rx="28" fill="url(#humtosong-gradient)"/>
  <path d="M54 40C54 36.6863 56.6863 34 60 34H72C75.3137 34 78 36.6863 78 40V74.5C78 84.7173 69.7173 93 59.5 93C49.2827 93 41 84.7173 41 74.5C41 64.2827 49.2827 56 59.5 56C61.9625 56 64.2978 56.5148 66.4 57.4356V48H60C56.6863 48 54 45.3137 54 42V40Z" fill="#FFFFFF"/>
  <path d="M88 44C91.3137 44 94 46.6863 94 50V72C94 75.3137 91.3137 78 88 78C84.6863 78 82 75.3137 82 72V50C82 46.6863 84.6863 44 88 44Z" fill="#D6DCFF"/>
</svg>
